# xmcd
#
# Track frame offsets:
#	150
#	13010
#	28630
#	44167
#	63385
#	76097
#	94545
#	108555
#	126385
#	138120
#	152700
#	167602
#	183160
#
# Disc length: 2657 seconds
#
# Revision: 1
# Processed by: cddbd v1.5.2PL0 Copyright (c) Steve Scherf et al.
# Submitted via: audiograbber 1.83.01
#
DISCID=a20a5f0d
DTITLE=Tony Barge - Empty places
DYEAR=2002
DGENRE=Country
TTITLE0=Talk back trembling lips
TTITLE1=Saginaw, Michigan
TTITLE2=Empty places (Mom's version)
TTITLE3=Murder on Music Row
TTITLE4=I only wish I knew
TTITLE5=Cold hard truth
TTITLE6=Just between the two of us
TTITLE7=Family bible
TTITLE8=Cut the rope
TTITLE9=That's how it sounds
TTITLE10=That September day
TTITLE11=Empty places (Dad's version)
TTITLE12=On day at a time
EXTD=
EXTT0=
EXTT1=
EXTT2=
EXTT3=
EXTT4=
EXTT5=
EXTT6=
EXTT7=
EXTT8=
EXTT9=
EXTT10=
EXTT11=
EXTT12=
PLAYORDER=
